<?xml version="1.0" encoding="utf-8"?>
<!-- Generator: Adobe Illustrator 16.0.0, SVG Export Plug-In . SVG Version: 6.00 Build 0)  -->
<!DOCTYPE svg PUBLIC "-//W3C//DTD SVG 1.0//EN" "http://www.w3.org/TR/2001/REC-SVG-20010904/DTD/svg10.dtd">
<svg version="1.0" id="Layer_1" xmlns="http://www.w3.org/2000/svg" xmlns:xlink="http://www.w3.org/1999/xlink" x="0px" y="0px"
	 width="128px" height="128px" viewBox="0 0 128 128" enable-background="new 0 0 128 128" xml:space="preserve" fill="#000000">
<path d="M64,11.531c17.089,0,19.114,0.065,25.864,0.373c6.24,0.286,9.625,1.328,11.881,2.206c2.984,1.159,5.119,2.547,7.359,4.787
	c2.239,2.239,3.625,4.372,4.786,7.359c0.88,2.255,1.922,5.643,2.203,11.883c0.312,6.747,0.375,8.773,0.375,25.862
	c0,17.089-0.062,19.114-0.375,25.864c-0.281,6.24-1.323,9.625-2.203,11.881c-1.161,2.984-2.547,5.119-4.786,7.359
	c-2.24,2.239-4.375,3.625-7.359,4.786c-2.256,0.88-5.641,1.922-11.881,2.203c-6.75,0.312-8.771,0.375-25.864,0.375
	c-17.091,0-19.115-0.062-25.862-0.375c-6.24-0.281-9.628-1.323-11.883-2.203c-2.987-1.161-5.12-2.547-7.359-4.786
	c-2.24-2.24-3.628-4.375-4.787-7.359c-0.877-2.256-1.919-5.641-2.206-11.881c-0.308-6.75-0.373-8.775-0.373-25.864
	c0-17.088,0.065-19.115,0.373-25.862c0.286-6.24,1.328-9.628,2.206-11.883c1.159-2.987,2.547-5.12,4.787-7.359
	c2.239-2.24,4.372-3.628,7.359-4.787c2.255-0.877,5.643-1.919,11.883-2.206C44.888,11.596,46.912,11.531,64,11.531z M64,0
	C46.62,0,44.44,0.073,37.612,0.385c-6.81,0.31-11.463,1.394-15.534,2.974c-4.208,1.635-7.779,3.823-11.336,7.383
	c-3.557,3.557-5.748,7.127-7.383,11.336c-1.581,4.07-2.664,8.724-2.974,15.534C0.073,44.44,0,46.62,0,64
	c0,17.38,0.073,19.562,0.385,26.386c0.31,6.812,1.394,11.469,2.974,15.536c1.635,4.208,3.826,7.776,7.383,11.339
	c3.557,3.552,7.127,5.744,11.336,7.38c4.07,1.578,8.724,2.661,15.534,2.974C44.44,127.927,46.62,128,64,128
	c17.38,0,19.562-0.073,26.386-0.386c6.812-0.312,11.469-1.396,15.536-2.974c4.208-1.636,7.776-3.828,11.339-7.38
	c3.552-3.562,5.744-7.131,7.38-11.339c1.578-4.067,2.661-8.724,2.974-15.536C127.927,83.562,128,81.38,128,64
	c0-17.38-0.073-19.56-0.386-26.388c-0.312-6.81-1.396-11.463-2.974-15.534c-1.636-4.208-3.828-7.779-7.38-11.336
	c-3.562-3.56-7.131-5.748-11.339-7.383c-4.067-1.581-8.724-2.664-15.536-2.974C83.562,0.073,81.38,0,64,0z"/>
<path d="M64.031,31.164c-18.151,0-32.865,14.716-32.865,32.867c0,18.146,14.714,32.864,32.865,32.864
	c18.151,0,32.864-14.719,32.864-32.864C96.896,45.88,82.183,31.164,64.031,31.164z M64.031,85.364
	c-11.784,0-21.333-9.552-21.333-21.333c0-11.784,9.55-21.336,21.333-21.336c11.781,0,21.333,9.552,21.333,21.336
	C85.364,75.812,75.812,85.364,64.031,85.364z"/>
<path d="M105.87,29.846c0,4.242-3.438,7.68-7.683,7.68c-4.239,0-7.677-3.438-7.677-7.68s3.438-7.68,7.677-7.68
	C102.433,22.167,105.87,25.604,105.87,29.846z"/>
</svg>
