<?xml version="1.0" encoding="utf-8"?>
<!-- Generator: Adobe Illustrator 16.0.0, SVG Export Plug-In . SVG Version: 6.00 Build 0)  -->
<!DOCTYPE svg PUBLIC "-//W3C//DTD SVG 1.1//EN" "http://www.w3.org/Graphics/SVG/1.1/DTD/svg11.dtd">
<svg version="1.1" id="Layer_1" xmlns="http://www.w3.org/2000/svg" xmlns:xlink="http://www.w3.org/1999/xlink" x="0px" y="0px"
	 width="128.282px" height="128px" viewBox="335.859 336 128.282 128" enable-background="new 335.859 336 128.282 128"
	 xml:space="preserve" fill="#000000">
<g id="XMLID_801_">
	<path id="XMLID_802_" d="M365.72,377.128h-25.753c-1.143,0-2.069,0.927-2.069,2.069v82.733c0,1.143,0.926,2.069,2.069,2.069h25.753
		c1.143,0,2.069-0.927,2.069-2.069v-82.733C367.789,378.055,366.863,377.128,365.72,377.128z"/>
	<path id="XMLID_803_" d="M352.853,336c-9.37,0-16.994,7.615-16.994,16.975c0,9.364,7.624,16.982,16.994,16.982
		c9.363,0,16.98-7.618,16.98-16.982C369.833,343.615,362.215,336,352.853,336z"/>
	<path id="XMLID_804_" d="M431.224,375.072c-10.343,0-17.989,4.446-22.627,9.499v-5.373c0-1.143-0.926-2.069-2.068-2.069h-24.663
		c-1.143,0-2.069,0.927-2.069,2.069v82.733c0,1.143,0.926,2.069,2.069,2.069h25.696c1.144,0,2.069-0.927,2.069-2.069v-40.934
		c0-13.794,3.746-19.168,13.362-19.168c10.472,0,11.304,8.615,11.304,19.877v40.225c0,1.144,0.926,2.069,2.069,2.069h25.706
		c1.143,0,2.068-0.926,2.068-2.069v-45.38C464.141,396.04,460.23,375.072,431.224,375.072z"/>
</g>
</svg>
