<?xml version="1.0" encoding="utf-8"?>
<!-- Generator: Adobe Illustrator 24.3.0, SVG Export Plug-In . SVG Version: 6.00 Build 0)  -->
<svg version="1.1" id="Warstwa_1" xmlns="http://www.w3.org/2000/svg" xmlns:xlink="http://www.w3.org/1999/xlink" x="0px" y="0px"
	 viewBox="0 0 207.4 86" style="enable-background:new 0 0 207.4 86;" xml:space="preserve">
<style type="text/css">
	.st0{filter:url(#Adobe_OpacityMaskFilter);}
	.st1{fill-rule:evenodd;clip-rule:evenodd;fill:#FFFFFF;}
	.st2{mask:url(#b_1_);fill-rule:evenodd;clip-rule:evenodd;fill:#1A1918;}
</style>
<g>
	<defs>
		<filter id="Adobe_OpacityMaskFilter" filterUnits="userSpaceOnUse" x="0" y="0" width="207.4" height="86">
			<feColorMatrix  type="matrix" values="1 0 0 0 0  0 1 0 0 0  0 0 1 0 0  0 0 0 1 0"/>
		</filter>
	</defs>
	<mask maskUnits="userSpaceOnUse" x="0" y="0" width="207.4" height="86" id="b_1_">
		<g class="st0">
			<path id="a_1_" class="st1" d="M0,0h207.3v86H0V0z"/>
		</g>
	</mask>
	<path class="st2" d="M21.7,38.7c-4.5-1.7-6.9-2.9-6.9-5c0-1.7,1.4-2.7,3.9-2.7c4.6,0,9.3,1.8,12.5,3.4l1.8-11.3
		c-2.6-1.2-7.8-3.2-15.1-3.2c-5.1,0-9.4,1.3-12.5,3.9c-3.2,2.6-4.8,6.4-4.8,11C0.6,43,5.7,46.6,14,49.6c5.3,1.9,7.1,3.2,7.1,5.3
		c0,2-1.7,3.2-4.8,3.2c-3.9,0-10.2-1.9-14.4-4.3L0,65.2c3.6,2,10.2,4.1,17,4.1c5.4,0,10-1.3,13-3.7c3.4-2.7,5.2-6.7,5.2-11.8
		C35.3,45.2,30.1,41.7,21.7,38.7L21.7,38.7z M65.2,32L67,20.8h-9.7V7.1l-13,2.1l-1.9,11.5l-4.6,0.7L36.1,32h6.3v22.1
		c0,5.8,1.5,9.7,4.5,12.2c2.5,2,6.1,3,11.2,3c3.9,0,6.3-0.7,8-1.1V56.3c-0.9,0.2-3,0.7-4.4,0.7c-3,0-4.3-1.5-4.3-5V32H65.2L65.2,32z
		 M94.3,20.1c-4.3,0-7.7,2.2-9.1,6.3l-0.9-5.6H71v47.6h15.2V37.5c1.9-2.3,4.6-3.2,8.3-3.2c0.8,0,1.7,0,2.7,0.2v-14
		C96.1,20.2,95.2,20.1,94.3,20.1z M108.5,16c4.4,0,8-3.6,8-8c0-4.5-3.6-8-8-8c-4.5,0-8,3.6-8,8C100.4,12.4,104,16,108.5,16L108.5,16
		z M100.8,20.8h15.2v47.6h-15.2V20.8z M159.2,25c-2.7-3.5-6.4-5.2-11.2-5.2c-4.4,0-8.3,1.8-11.9,5.7l-0.8-4.8H122V86l15.2-2.5V68.2
		c2.3,0.7,4.7,1.1,6.9,1.1c3.8,0,9.3-1,13.6-5.6c4.1-4.5,6.2-11.4,6.2-20.5C163.8,35.1,162.3,29,159.2,25L159.2,25z M146.6,54.4
		c-1.2,2.3-3.1,3.6-5.3,3.6c-1.5,0-2.9-0.3-4.1-0.9V34.4c2.6-2.7,4.9-3,5.8-3c3.9,0,5.8,4.2,5.8,12.3C148.7,48.4,148,52,146.6,54.4
		L146.6,54.4z M207.4,44.1c0-7.6-1.7-13.6-4.9-17.8c-3.3-4.3-8.3-6.5-14.6-6.5c-12.9,0-20.9,9.5-20.9,24.9c0,8.6,2.1,15,6.4,19.1
		c3.8,3.7,9.2,5.5,16.3,5.5c6.5,0,12.5-1.5,16.3-4l-1.7-10.4c-3.7,2-8.1,3.1-13,3.1c-2.9,0-5-0.6-6.4-1.9c-1.6-1.3-2.5-3.6-2.8-6.7
		h25.2C207.2,48.7,207.4,45.2,207.4,44.1L207.4,44.1z M181.9,40.1c0.4-6.8,2.3-10,5.8-10c3.4,0,5.2,3.2,5.4,10H181.9z"/>
</g>
</svg>
